<svg width="100" height="100" viewBox="0 0 100 100" fill="none" xmlns="http://www.w3.org/2000/svg">
<g id="ChevronCompactRight">
<path id="Vector" fill-rule="evenodd" clip-rule="evenodd" d="M42.3501 9.70625C43.0911 9.33497 43.9491 9.27323 44.7356 9.53461C45.5221 9.79598 46.1725 10.3591 46.5439 11.1L65.2939 48.6C65.5116 49.0346 65.625 49.5139 65.625 50C65.625 50.4861 65.5116 50.9654 65.2939 51.4L46.5439 88.9C46.3619 89.2701 46.1086 89.6006 45.7983 89.8723C45.4881 90.1441 45.1272 90.3517 44.7363 90.4833C44.3454 90.6149 43.9324 90.6678 43.521 90.639C43.1096 90.6102 42.7079 90.5002 42.3392 90.3155C41.9705 90.1307 41.642 89.8748 41.3727 89.5625C41.1033 89.2501 40.8985 88.8876 40.7699 88.4957C40.6414 88.1038 40.5917 87.6904 40.6237 87.2792C40.6557 86.868 40.7687 86.4673 40.9564 86.1L59.0001 50L40.9564 13.9C40.5851 13.159 40.5233 12.301 40.7847 11.5145C41.0461 10.728 41.6092 10.0776 42.3501 9.70625Z" fill="#E50F5E"/>
</g>
</svg>
